PathFileType	4	(X/Y/Z)	TVC_20_BWA6_walk_RCNL2025.trc
DataRate	CameraRate	NumFrames	NumMarkers	Units	OrigDataRate	OrigDataStartFrame	OrigNumFrames
100	100	11	27	mm	100	120	238
Frame#	Time	R_Shoulder			L_Shoulder			C7			J_Notch			R_Elbow			L_Elbow			R_Wrist			L_Wrist			R_Asis			L_Asis			R_Psis			L_Psis			Sacral			Thoracic			Sternum			R_Thigh_Lateral			R_Knee_Lateral			R_Shank_Lateral			R_Ankle_Lateral			R_Heel			R_Toe			L_Thigh_Lateral			L_Knee_Lateral			L_Shank_Lateral			L_Ankle_Lateral			L_Heel			L_Toe		
		X1	Y1	Z1	X2	Y2	Z2	X3	Y3	Z3	X4	Y4	Z4	X5	Y5	Z5	X6	Y6	Z6	X7	Y7	Z7	X8	Y8	Z8	X9	Y9	Z9	X10	Y10	Z10	X11	Y11	Z11	X12	Y12	Z12	X13	Y13	Z13	X14	Y14	Z14	X15	Y15	Z15	X16	Y16	Z16	X17	Y17	Z17	X18	Y18	Z18	X19	Y19	Z19	X20	Y20	Z20	X21	Y21	Z21	X22	Y22	Z22	X23	Y23	Z23	X24	Y24	Z24	X25	Y25	Z25	X26	Y26	Z26	X27	Y27	Z27
120	1.19000000	318.002716	1392.847046	84.618042	305.719910	1413.853516	-281.533875	287.411743	1458.170410	-85.890778	403.037140	1323.213989	-91.867783	252.573700	1090.324585	189.057281	229.133072	1116.352051	-394.693390	438.608383	907.650635	169.185539	343.560562	879.802246	-394.985016	323.815704	992.326111	46.472637	364.507233	1007.894653	-228.488739	186.198883	1000.878540	-66.951317	186.359268	995.576660	-157.806641	186.279076	998.227600	-112.378979	170.520081	1234.345337	-111.571236	413.016785	1180.603516	-97.308830	314.320740	655.940796	108.012596	338.812134	452.017548	39.813728	181.551758	357.679169	74.898445	-6.858318	236.251495	-23.124878	-47.061401	263.226501	-75.270500	45.983738	97.582207	-45.229092	378.690460	642.446838	-290.905609	424.532135	490.347229	-203.641541	401.419403	304.181549	-253.100082	360.380280	68.962402	-163.686478	310.371521	61.020287	-125.723419	497.826080	36.683117	-125.098923
121	1.20000000	330.412506	1394.989014	85.344818	319.014679	1416.405151	-280.865845	300.433502	1460.457397	-85.188240	416.002472	1325.665894	-90.995651	263.501801	1092.900146	189.853821	245.262100	1118.585083	-395.257263	449.305725	909.864319	170.961426	364.635651	884.556580	-395.136002	337.498230	994.803162	46.220387	377.072693	1010.087830	-228.750336	199.429031	1003.285889	-66.613312	199.331009	998.259705	-157.391266	199.380020	1000.772797	-112.002289	183.764984	1236.478760	-111.348541	426.069885	1183.145508	-96.710289	334.015076	659.434753	108.997261	365.166687	456.108154	41.429974	209.315735	359.884949	76.707222	24.864355	232.775635	-21.338844	-16.947773	257.805267	-73.595673	83.022835	96.725716	-42.135525	385.917847	643.538940	-291.209839	426.904999	489.877319	-204.002670	402.080017	304.156708	-253.684464	360.381744	69.050110	-163.733383	310.366364	61.321922	-125.885536	497.747742	36.556885	-125.317642
122	1.21000000	342.827026	1396.911743	86.083321	332.200043	1418.801514	-280.173370	313.394196	1462.542725	-84.447388	428.913818	1327.923340	-90.145401	274.478943	1095.280640	190.694321	261.259186	1120.712280	-395.804688	460.054108	911.927124	172.789261	385.640930	889.376160	-395.219299	351.179138	997.226562	45.945362	389.573914	1012.051575	-229.006271	212.579178	1005.533752	-66.239044	212.224747	1000.738281	-156.926239	212.401962	1003.136017	-111.582642	196.937912	1238.434082	-111.114838	439.078430	1185.503662	-96.180855	353.718201	662.893005	110.019714	391.056885	460.433105	42.924606	237.203354	361.160187	78.432884	57.653263	227.551376	-19.511124	14.116752	250.300369	-71.857658	121.682602	94.576965	-38.963619	392.270172	644.313232	-291.397003	429.092529	489.435638	-204.272903	402.687561	304.190643	-254.150696	360.421173	69.188309	-163.751328	310.408722	61.673565	-126.010811	497.694702	36.442146	-125.514999
123	1.22000000	355.264496	1398.587036	86.821045	345.294708	1420.995605	-279.469238	326.305542	1464.393433	-83.684364	441.784760	1329.948486	-89.328148	285.521851	1097.434937	191.561996	277.163452	1122.675171	-396.340515	470.867355	913.800995	174.666107	406.587921	894.199127	-395.221649	364.846802	999.533752	45.671940	402.026733	1013.754883	-229.241653	225.658218	1007.574036	-65.816513	225.047577	1002.972717	-156.400970	225.352898	1005.273376	-111.108742	210.046829	1240.179932	-110.864731	452.052521	1187.634644	-95.724739	373.473724	666.264893	111.078629	416.475525	464.870209	44.273304	265.290680	361.427490	80.074081	91.409096	220.812225	-17.619190	46.128582	240.986694	-70.043060	161.656815	91.380508	-35.667419	397.738861	644.747009	-291.464661	431.156036	489.013947	-204.449326	403.195923	304.265411	-254.506348	360.478943	69.362953	-163.729218	310.486908	62.049137	-126.076393	497.677246	36.348206	-125.679070
124	1.23000000	367.740692	1399.991211	87.547432	358.315826	1422.943848	-278.764526	339.178406	1465.980225	-82.914017	454.627258	1331.706665	-88.552711	296.644104	1099.335571	192.441116	293.014496	1124.419434	-396.869843	481.757828	915.451324	176.587067	427.491425	898.965607	-395.129395	378.486206	1001.659729	45.427479	414.444397	1015.168823	-229.440933	238.674622	1009.362793	-65.335556	237.805496	1004.927734	-155.807648	238.240059	1007.145264	-110.571602	223.098938	1241.688599	-110.590569	464.999115	1189.497070	-95.341179	393.313324	669.532104	112.164200	441.413696	469.310364	45.459629	293.637939	360.697815	81.641602	126.040085	212.806763	-15.640951	79.102760	230.165314	-68.142807	202.678848	87.390221	-32.213360	402.580780	644.893982	-291.424896	433.149323	488.601105	-204.536209	403.573303	304.363617	-254.770050	360.533936	69.555099	-163.659241	310.585175	62.418873	-126.062202	497.705109	36.280064	-125.803001
125	1.24000000	380.268982	1401.104858	88.254196	371.278534	1424.606323	-278.068176	352.022461	1467.278564	-82.149406	467.451355	1333.166748	-87.825401	307.854919	1100.959473	193.317337	308.851379	1125.896118	-397.397217	492.735901	916.847534	178.545311	448.366959	903.618958	-394.928909	392.082520	1003.541077	45.239632	426.837524	1016.268188	-229.588989	251.636581	1010.861816	-64.787735	250.503662	1006.573120	-155.140991	251.070122	1008.717468	-109.964363	236.100723	1242.935791	-110.282684	477.922394	1191.052979	-95.025002	413.263580	672.687378	113.260864	465.857056	473.659821	46.476639	322.275574	359.060730	83.155312	161.471130	203.785019	-13.556222	113.064682	218.141541	-66.148819	244.534805	82.853004	-28.583803	407.195007	644.844360	-291.297638	435.121063	488.184357	-204.543243	403.819855	304.468933	-254.964890	360.567413	69.745781	-163.537415	310.686859	62.755169	-125.954185	497.784790	36.239956	-125.887054
126	1.25000000	392.860443	1401.914185	88.935471	384.195831	1425.948364	-277.386688	364.846313	1468.268555	-81.401382	480.265472	1334.302856	-87.149971	319.158661	1102.288940	194.177933	324.711700	1127.063721	-397.925751	503.809464	917.963745	180.532387	469.228516	908.107025	-394.607025	405.623657	1005.119507	45.133842	439.213959	1017.032715	-229.672226	264.552429	1012.039978	-64.166084	263.146698	1007.885193	-154.397751	263.849564	1009.962585	-109.281918	249.058044	1243.901978	-109.929710	490.824219	1192.269531	-94.767494	433.346680	675.717529	114.355576	489.783844	477.840118	47.327225	351.193848	356.665558	84.639931	197.649277	193.988907	-11.347851	148.039673	205.208054	-64.050323	287.068054	78.001633	-24.779232	411.970428	644.685303	-291.101227	437.117554	487.750519	-204.483078	403.972076	304.566833	-255.112213	360.565887	69.920303	-163.363373	310.777557	63.038353	-125.746986	497.916412	36.228149	-125.939041
127	1.26000000	405.523956	1402.410767	89.587906	397.078857	1426.942261	-276.723938	377.657288	1468.935913	-80.678337	493.076385	1335.094727	-86.527672	330.555267	1103.311646	195.012222	340.630493	1127.889893	-398.456604	514.983597	918.779358	182.538544	490.086578	912.382874	-394.151367	419.102173	1006.344849	45.131268	451.578613	1017.448669	-229.679565	277.430939	1012.873779	-63.464767	275.739105	1008.847046	-153.575928	276.585022	1010.860413	-108.520348	261.976318	1244.571777	-109.519020	503.704803	1193.120117	-94.557472	453.572632	678.597717	115.446465	513.164612	481.785767	48.023380	380.337891	353.697113	86.120789	234.543732	183.646866	-9.002633	184.044006	191.635910	-61.832024	330.173126	73.053452	-20.820089	417.174591	644.476562	-290.845886	439.185211	487.286316	-204.368820	404.095306	304.645325	-255.227600	360.523010	70.071121	-163.139999	310.847168	63.259846	-125.444572	498.090515	36.242573	-125.972939
128	1.27000000	418.266449	1402.592041	90.210594	409.936981	1427.567505	-276.081116	390.461578	1469.271484	-79.986031	505.889496	1335.528687	-85.957397	342.040955	1104.020996	195.811829	356.639160	1128.352417	-398.988190	526.260101	919.279114	184.553116	510.946609	916.405792	-393.550583	432.516632	1007.177917	45.247326	463.933624	1017.509766	-229.603302	290.281586	1013.347778	-62.678715	288.285675	1009.448914	-152.674026	289.283630	1011.398346	-107.676371	274.860718	1244.935059	-109.037186	516.563538	1193.585693	-94.382401	473.925232	681.294250	116.545769	535.963623	485.441315	48.584675	409.609955	350.350159	87.620712	272.140900	172.972687	-6.511967	221.079315	177.672470	-59.474659	373.781403	68.211349	-16.746660	422.910095	644.242493	-290.537323	441.372467	486.778992	-204.212204	404.270874	304.695251	-255.319366	360.439209	70.198212	-162.872833	310.890656	63.422314	-125.058800	498.286102	36.277519	-126.006256
129	1.28000000	431.093079	1402.460938	90.804901	422.778229	1427.812012	-275.456757	403.264465	1469.272217	-79.327492	518.709290	1335.597656	-85.435829	353.609741	1104.415894	196.570984	372.764526	1128.439575	-399.515930	537.637482	919.453369	186.565010	531.808228	920.141724	-392.794601	445.872009	1007.591614	45.490986	476.278442	1017.218140	-229.439636	303.115021	1013.454468	-61.803276	300.791870	1009.688416	-151.690155	301.953445	1011.571442	-106.746716	287.716522	1244.985962	-108.470535	529.399841	1193.656006	-94.229462	494.347595	683.766785	117.675789	558.140808	488.758087	49.036205	438.879181	346.806000	89.157890	310.436035	162.167435	-3.872274	259.130249	163.544342	-56.957920	417.844452	63.664349	-12.615076	429.139832	643.972046	-290.181763	443.730743	486.216492	-204.022507	404.583008	304.710052	-255.389175	360.320312	70.307159	-162.568939	310.907928	63.537800	-124.606682	498.471863	36.322422	-126.056335
130	1.29000000	444.007324	1402.026001	91.374313	435.609711	1427.672119	-274.846924	416.070282	1468.940063	-78.703072	531.539429	1335.302002	-84.957703	365.254883	1104.500610	197.286728	389.027863	1128.150513	-400.031982	549.110840	919.297913	188.563087	552.664734	923.563721	-391.874588	459.179993	1007.571594	45.864571	488.610229	1016.584351	-229.188797	315.943115	1013.193787	-60.833942	313.264343	1009.570190	-150.621567	314.603729	1011.381989	-105.727755	300.549469	1244.723999	-107.805725	542.213867	1193.329712	-94.086449	514.728271	685.967163	118.859467	579.655334	491.691803	49.406254	467.996857	343.213928	90.744667	349.422760	151.422653	-1.085489	298.163635	149.464386	-54.265156	462.319092	59.585484	-8.489983	435.752075	643.629395	-289.785248	446.314209	485.587860	-203.806351	405.108887	304.685272	-255.433762	360.175018	70.406342	-162.235977	310.902557	63.624592	-124.107063	498.613251	36.361778	-126.134140
